<svg version="1.1" xmlns="http://www.w3.org/2000/svg" xmlns:xlink="http://www.w3.org/1999/xlink" x="0px" y="0px"
	 width="800px" height="800px" viewBox="0 0 800 800"  xml:space="preserve">
<path class="st0" d="M450,475H350c-17.6,0-28.3,0-39-4.4c-14.4-6-25.6-17.2-31.6-31.6c-4.4-10.7-4.4-21.4-4.4-39
	c0-17.6,0-28.3,4.4-39c6-14.4,17.2-25.6,31.6-31.6c10.7-4.4,21.4-4.4,39-4.4h100c17.6,0,28.3,0,39,4.4c14.4,6,25.6,17.2,31.6,31.6
	c4.4,10.7,4.4,21.4,4.4,39c0,17.6,0,28.3-4.4,39c-6,14.4-17.2,25.6-31.6,31.6C478.3,475,467.6,475,450,475z M330,424.3
	c2.4,0.7,11.3,0.7,20,0.7h100c8.6,0,17.6,0,20-0.7c1.9-0.8,3.5-2.4,4.4-4.4c0.7-2.4,0.7-11.3,0.7-20c0-8.6,0-17.6-0.7-20
	c-0.8-1.9-2.4-3.5-4.4-4.4c-2.4-0.7-11.3-0.7-20-0.7H350c-8.6,0-17.6,0-20,0.7c-2,0.8-3.5,2.4-4.4,4.4c-0.7,2.4-0.7,11.3-0.7,20
	c0,8.6,0,17.6,0.7,20C326.5,421.9,328.1,423.5,330,424.3z M325.6,380.1C325.6,380.1,325.6,380.1,325.6,380.1
	C325.6,380.1,325.6,380.1,325.6,380.1z M474.3,380C474.3,380,474.3,380,474.3,380C474.3,380,474.3,380,474.3,380z M325.7,380
	C325.7,380,325.7,380,325.7,380C325.7,380,325.7,380,325.7,380z M470,375.7C470,375.7,470,375.7,470,375.7
	C470,375.7,470,375.7,470,375.7z M330,375.7C330,375.7,330,375.7,330,375.7C330,375.7,330,375.7,330,375.7z"/>
<path class="st0" d="M416.7,725h-33.3c-64.8,0-111.7,0-149.6-5.1c-43.5-5.8-73-18.6-95.7-41.3c-22.7-22.7-35.4-52.2-41.3-95.7
	c-5.1-38-5.1-84.8-5.1-149.6v-200c0-13.8,11.2-25,25-25c13.8,0,25,11.2,25,25v200c0,118.7,0,178.2,31.7,209.9
	C205.1,675,264.7,675,383.3,675h33.3c118.7,0,178.2,0,209.9-31.7c31.7-31.7,31.7-91.3,31.7-209.9v-200c0-13.8,11.2-25,25-25
	c13.8,0,25,11.2,25,25v200c0,64.8,0,111.7-5.1,149.6c-5.8,43.5-18.6,73-41.3,95.7c-22.7,22.7-52.2,35.4-95.7,41.3
	C528.3,725,481.5,725,416.7,725z"/>
<path class="st0" d="M666.7,258.3H133.3c-35.9,0-57.5,0-74.6-17.1c-17.1-17.1-17.1-38.7-17.1-74.6s0-57.5,17.1-74.6
	C75.8,75,97.5,75,133.3,75h533.3c35.9,0,57.5,0,74.6,17.1c17.1,17.1,17.1,38.7,17.1,74.6s0,57.5-17.1,74.6
	C724.2,258.3,702.5,258.3,666.7,258.3z M133.3,125c-16.7,0-35.6,0-39.2,2.4c-2.4,3.6-2.4,22.5-2.4,39.2s0,35.6,2.4,39.2
	c3.6,2.4,22.5,2.4,39.2,2.4h533.3c16.7,0,35.6,0,39.2-2.5c2.4-3.6,2.4-22.5,2.4-39.2s0-35.6-2.4-39.2c-3.6-2.4-22.5-2.4-39.2-2.4
	H133.3z"/>
</svg>
