<svg version="1.1" fill="#ffffff" xmlns="http://www.w3.org/2000/svg" xmlns:xlink="http://www.w3.org/1999/xlink" x="0px" y="0px"
	 width="800px" height="800px" viewBox="0 0 800 800" xml:space="preserve">
<path d="M593.3,733.3H206.7c-41.3,0-64,0-85.4-10.9c-18.9-9.6-34-24.8-43.7-43.7c-10.9-21.4-10.9-44.1-10.9-85.4v-320
	c0-41.3,0-64,10.9-85.4c9.7-18.9,24.8-34.1,43.7-43.7c20.2-10.3,41.6-10.9,78.7-10.9V100c0-18.4,14.9-33.3,33.3-33.3
	c18.4,0,33.3,14.9,33.3,33.3v33.3h266.7V100c0-18.4,14.9-33.3,33.3-33.3S600,81.6,600,100v33.3c37.1,0,58.5,0.6,78.7,10.9
	c18.9,9.7,34.1,24.8,43.7,43.7c10.9,21.4,10.9,44.1,10.9,85.4v320c0,41.3,0,64-10.9,85.4c-9.6,18.9-24.8,34-43.7,43.7
	C657.3,733.3,634.6,733.3,593.3,733.3z M133.3,333.3v260c0,28.9,0,48,3.6,55.1c3.2,6.3,8.3,11.4,14.6,14.6
	c7.1,3.6,26.2,3.6,55.1,3.6h386.7c28.9,0,48,0,55.1-3.6c6.3-3.2,11.4-8.3,14.6-14.6c3.6-7.1,3.6-26.2,3.6-55.1v-260H133.3z
	 M133.3,266.7h533.3c0-25.2-0.3-41.9-3.6-48.5c-3.2-6.3-8.3-11.4-14.6-14.6c-7.1-3.6-26.2-3.6-55.1-3.6H206.7c-28.9,0-48,0-55.1,3.6
	c-6.3,3.2-11.4,8.3-14.6,14.6C133.6,224.8,133.4,241.5,133.3,266.7z M600,600h-66.7c-18.4,0-33.3-14.9-33.3-33.3
	s14.9-33.3,33.3-33.3H600c18.4,0,33.3,14.9,33.3,33.3S618.4,600,600,600z M433.3,600h-66.7c-18.4,0-33.3-14.9-33.3-33.3
	s14.9-33.3,33.3-33.3h66.7c18.4,0,33.3,14.9,33.3,33.3S451.7,600,433.3,600z M266.7,600H200c-18.4,0-33.3-14.9-33.3-33.3
	s14.9-33.3,33.3-33.3h66.7c18.4,0,33.3,14.9,33.3,33.3S285.1,600,266.7,600z M600,466.7h-66.7c-18.4,0-33.3-14.9-33.3-33.3
	s14.9-33.3,33.3-33.3H600c18.4,0,33.3,14.9,33.3,33.3S618.4,466.7,600,466.7z M433.3,466.7h-66.7c-18.4,0-33.3-14.9-33.3-33.3
	s14.9-33.3,33.3-33.3h66.7c18.4,0,33.3,14.9,33.3,33.3S451.7,466.7,433.3,466.7z M266.7,466.7H200c-18.4,0-33.3-14.9-33.3-33.3
	S181.6,400,200,400h66.7c18.4,0,33.3,14.9,33.3,33.3S285.1,466.7,266.7,466.7z"/>
</svg>
