<svg version="1.1" fill="#ffffff" xmlns="http://www.w3.org/2000/svg" xmlns:xlink="http://www.w3.org/1999/xlink" x="0px" y="0px"
	 width="800px" height="800px" viewBox="0 0 800 800" style="enable-background:new 0 0 800 800;" xml:space="preserve">
<path d="M593.3,666.7H206.7c-41.3,0-64,0-85.4-10.9c-18.9-9.6-34-24.8-43.7-43.7c-10.9-21.4-10.9-44.1-10.9-85.4V273.3
	c0-41.3,0-64,10.9-85.4c9.7-18.9,24.8-34.1,43.7-43.7c21.4-10.9,44.1-10.9,85.4-10.9h115.8c17.7,0,28.4,0,39.9,2.8
	c10.2,2.5,19.9,6.5,28.9,12c10.1,6.2,17.7,13.7,30.2,26.3l4.2,4.2c9,9,14.5,14.5,17.9,16.6c3,1.8,6.2,3.2,9.6,4
	c3.8,0.9,11.6,0.9,24.3,0.9h115.8c41.3,0,64,0,85.4,10.9c18.9,9.7,34.1,24.8,43.7,43.7c10.9,21.4,10.9,44.1,10.9,85.4v186.7
	c0,41.3,0,64-10.9,85.4c-9.6,18.9-24.8,34.1-43.7,43.7C657.3,666.7,634.6,666.7,593.3,666.7z M206.7,200c-28.9,0-48,0-55.1,3.6
	c-6.3,3.2-11.4,8.3-14.6,14.6c-3.6,7.1-3.6,26.2-3.6,55.1v253.3c0,28.9,0,48,3.6,55.1c3.2,6.3,8.3,11.3,14.6,14.6
	c7.1,3.6,26.2,3.6,55.1,3.6h386.7c28.9,0,48,0,55.1-3.6c6.3-3.2,11.4-8.3,14.6-14.6c3.6-7.1,3.6-26.2,3.6-55.1V340
	c0-28.9,0-48-3.6-55.1c-3.2-6.3-8.3-11.4-14.6-14.6c-7.1-3.6-26.2-3.6-55.1-3.6H477.5c-17.7,0-28.4,0-39.9-2.8
	c-10.2-2.5-19.9-6.5-28.9-12c-10.1-6.2-17.7-13.7-30.2-26.3l-4.2-4.2c-9-9-14.5-14.5-17.9-16.6c-3-1.8-6.2-3.2-9.6-4
	c-3.8-0.9-11.6-0.9-24.3-0.9H206.7z"/>
</svg>
