<svg width="320" height="48" viewBox="0 0 320 48" fill="none" xmlns="http://www.w3.org/2000/svg">
<path d="M13.931 0.952H14.955C21.9097 0.952 26.3683 3.46933 28.331 8.504L28.523 10.552V11.192C28.523 16.1413 25.515 20.728 19.499 24.952C18.0483 25.3787 17.323 25.848 17.323 26.36C19.0297 32.888 19.883 38.2213 19.883 42.36V43.192C19.883 44.8987 19.179 45.752 17.771 45.752C16.7043 45.624 16.171 45.0907 16.171 44.152V42.552C16.171 37.6453 15.275 32.312 13.483 26.552C10.027 26.2533 8.107 25.3147 7.723 23.736V23.352C7.723 22.584 8.32033 21.9867 9.515 21.56L12.331 22.52V22.392C10.8803 16.0773 10.155 11.8107 10.155 9.592C10.155 8.35467 10.8803 7.736 12.331 7.736C13.6537 7.736 14.315 9.99733 14.315 14.52L16.171 22.136C19.243 21.112 21.6323 19.1067 23.339 16.12C24.235 14.4133 24.683 12.8987 24.683 11.576V10.744C24.683 7.24533 21.6963 5.26133 15.723 4.792H13.099C7.25367 5.432 4.331 6.81867 4.331 8.952V9.336C4.331 9.976 4.67233 10.9787 5.355 12.344C5.355 13.2827 4.60833 13.88 3.115 14.136C1.40833 13.3253 0.555 11.6613 0.555 9.144C0.555 4.45066 5.01367 1.72 13.931 0.952ZM36.976 20.024C38.6827 20.0667 41.5627 23.0533 45.616 28.984L45.744 30.072C45.744 31.2667 42.8213 32.184 36.976 32.824L36.784 33.016V33.272C37.68 37.112 38.6187 39.032 39.6 39.032H40.368C41.7333 39.032 43.8027 37.56 46.576 34.616H46.96C47.8133 34.616 48.4747 35.2347 48.944 36.472C48.944 37.496 47.152 39.2667 43.568 41.784C42.6293 42.3387 41.4987 42.744 40.176 43C36.72 43 34.3093 39.7573 32.944 33.272C30.9813 32.9733 30 32.1627 30 30.84C30 29.9013 30.7253 29.2827 32.176 28.984V29.24L32.816 28.984V27.384C32.816 22.4773 34.2027 20.024 36.976 20.024ZM37.36 24.632H36.784L36.528 27V28.984H36.784C39.1733 28.8987 40.368 28.6427 40.368 28.216C39.2587 26.552 38.256 25.3573 37.36 24.632ZM59.8515 17.784C62.5395 17.784 64.1395 19.6613 64.6515 23.416V23.992C64.6515 28.1307 62.5182 31.928 58.2515 35.384C60.7262 37.816 65.0568 39.032 71.2435 39.032C72.1822 39.3307 72.6515 39.992 72.6515 41.016C72.6515 42.168 71.9048 42.744 70.4115 42.744C66.2302 42.744 61.8355 41.6773 57.2275 39.544V41.4C57.2275 45.7947 56.2888 47.992 54.4115 47.992C53.0888 47.992 52.4275 45.4533 52.4275 40.376V35.384L52.2355 33.592L52.6835 31.544L52.2355 25.4V25.144C52.2355 23.992 52.8328 23.2027 54.0275 22.776C55.6915 19.448 57.6328 17.784 59.8515 17.784ZM56.6515 31.8C57.8888 31.8 59.2755 29.5813 60.8115 25.144V22.392L60.0435 21.56H59.4675C57.5902 22.84 56.6515 26.2533 56.6515 31.8ZM87.6425 17.08C88.7945 17.08 89.5838 19.0213 90.0105 22.904C89.5838 23.9707 88.8798 24.504 87.8985 24.504C87.2158 24.376 86.5332 23.5867 85.8505 22.136L84.6985 21.752C82.6932 21.752 80.8798 23.0747 79.2585 25.72V26.296C79.2585 26.936 82.2665 28.0027 88.2825 29.496C90.7998 30.9893 92.0585 32.8027 92.0585 34.936C92.0585 38.4347 89.2425 41.4213 83.6105 43.896L81.2425 44.28C77.6585 43.896 75.8665 42.104 75.8665 38.904V38.712C75.8665 37.688 76.5278 37.0907 77.8505 36.92C78.8745 36.92 79.5572 37.9867 79.8985 40.12L80.4105 40.504H81.4985C83.9305 40.504 86.1918 38.84 88.2825 35.512V34.68C88.2825 33.4 85.4878 32.2053 79.8985 31.096C76.9545 29.9013 75.4825 28.2373 75.4825 26.104C75.4825 23.3307 77.8078 20.728 82.4585 18.296C84.5065 18.04 86.2345 17.6347 87.6425 17.08ZM104.644 18.872C107.801 18.872 110.19 21.2187 111.812 25.912L112.068 27.256C112.068 31.8213 109.934 36.4933 105.668 41.272C103.961 42.8507 102.233 43.64 100.484 43.64C97.9235 43.64 96.1102 42.168 95.0435 39.224C94.6595 37.8587 94.4675 36.664 94.4675 35.64V34.872C94.4675 28.1307 96.9208 23.0107 101.828 19.512C102.681 19.0853 103.62 18.872 104.644 18.872ZM98.2435 35.512C98.2435 38.4133 98.9902 39.864 100.484 39.864C103.598 39.864 106.18 35.8747 108.228 27.896V26.68C107.502 24.0347 106.158 22.712 104.196 22.712C103.428 22.712 103.044 23.2453 103.044 24.312C103.044 25.0373 102.19 25.6133 100.484 26.04C98.9902 28.5573 98.2435 31.7147 98.2435 35.512ZM123.224 21.432C126.85 21.7307 128.664 23.5013 128.664 26.744L128.792 27.576L128.664 37.56C128.664 38.712 129.325 40.2693 130.648 42.232V42.36C130.306 43.5973 129.688 44.216 128.792 44.216C126.146 43.1067 124.824 40.76 124.824 37.176V36.344L124.632 36.216L124.824 35.96V35.832L125.016 27C125.016 25.7627 124.482 25.144 123.416 25.144H122.648C120.514 25.9973 119.448 30.6693 119.448 39.16C119.448 42.104 118.701 43.576 117.208 43.576C116.056 43.576 115.458 42.8507 115.416 41.4V35C115.416 26.7227 116.141 22.584 117.592 22.584L118.232 22.392L119.576 22.584C120.728 21.816 121.944 21.432 123.224 21.432ZM144.622 18.296C146.499 18.296 147.438 19.0427 147.438 20.536L146.862 21.752L146.478 33.464C146.478 38.7547 147.544 42.04 149.678 43.32L149.806 44.28C149.678 45.5173 149.102 46.136 148.078 46.136H147.694C144.494 43.96 142.894 40.632 142.894 36.152H142.446C140.739 40.9307 138.67 43.32 136.238 43.32C133.976 42.68 132.846 40.9947 132.846 38.264C132.846 32.248 135.256 26.2533 140.078 20.28C141.699 18.9573 143.214 18.296 144.622 18.296ZM136.878 35.704L136.622 37.496V38.712H137.262C140.462 30.7333 142.062 25.8693 142.062 24.12H141.806C139.331 26.8933 137.688 30.7547 136.878 35.704ZM154.989 7.736C156.184 8.16267 156.781 8.824 156.781 9.72L157.421 34.104V41.976C157.421 43.4267 156.802 44.152 155.565 44.152H154.733C153.965 43.64 153.581 43.0427 153.581 42.36V34.936L153.005 9.592C153.005 8.52533 153.666 7.90666 154.989 7.736ZM204.906 2.232H205.994C207.316 2.488 207.978 3.14933 207.978 4.216C207.978 4.51466 207.572 5.13333 206.762 6.072V9.272C206.762 12.344 207.487 21.6667 208.938 37.24C208.938 43.2133 207.146 46.2 203.562 46.2C200.575 46.2 196.18 42.0187 190.378 33.656C188.5 33.656 187.306 32.9947 186.794 31.672L186.346 30.072C186.73 28.4507 187.455 27.64 188.522 27.64C190.911 28.6213 194.388 32.4187 198.954 39.032C201.215 41.2933 202.751 42.424 203.562 42.424H203.946C204.586 42.1253 204.906 41.1227 204.906 39.416V35.384L202.922 11.384L202.794 7.224C202.794 3.896 203.498 2.232 204.906 2.232ZM222.644 18.872C225.801 18.872 228.19 21.2187 229.812 25.912L230.068 27.256C230.068 31.8213 227.934 36.4933 223.668 41.272C221.961 42.8507 220.233 43.64 218.484 43.64C215.924 43.64 214.11 42.168 213.044 39.224C212.66 37.8587 212.468 36.664 212.468 35.64V34.872C212.468 28.1307 214.921 23.0107 219.828 19.512C220.681 19.0853 221.62 18.872 222.644 18.872ZM216.244 35.512C216.244 38.4133 216.99 39.864 218.484 39.864C221.598 39.864 224.18 35.8747 226.228 27.896V26.68C225.502 24.0347 224.158 22.712 222.196 22.712C221.428 22.712 221.044 23.2453 221.044 24.312C221.044 25.0373 220.19 25.6133 218.484 26.04C216.99 28.5573 216.244 31.7147 216.244 35.512ZM235.464 23.736L236.616 23.096C237.64 23.096 238.386 23.7147 238.856 24.952C238.173 28.1093 237.832 31.352 237.832 34.68C237.832 36.344 238.322 38.1573 239.304 40.12H239.688C240.925 40.12 242.397 35.2347 244.104 25.464C244.701 24.952 245.277 24.696 245.832 24.696C247.154 24.696 247.816 27.0427 247.816 31.736C248.37 36.8987 248.989 39.48 249.672 39.48L250.632 39.096C251.869 39.5653 252.488 40.2267 252.488 41.08C251.72 42.7013 250.653 43.512 249.288 43.512C247.752 43.512 246.28 41.976 244.872 38.904C243.165 42.488 241.437 44.28 239.688 44.28C237.085 44.28 235.272 41.5707 234.248 36.152L234.056 34.104V33.464C234.056 30.0507 234.525 26.808 235.464 23.736ZM262.289 17.784C264.977 17.784 266.577 19.6613 267.089 23.416V23.992C267.089 28.1307 264.956 31.928 260.689 35.384C263.164 37.816 267.494 39.032 273.681 39.032C274.62 39.3307 275.089 39.992 275.089 41.016C275.089 42.168 274.342 42.744 272.849 42.744C268.668 42.744 264.273 41.6773 259.665 39.544V41.4C259.665 45.7947 258.726 47.992 256.849 47.992C255.526 47.992 254.865 45.4533 254.865 40.376V35.384L254.673 33.592L255.121 31.544L254.673 25.4V25.144C254.673 23.992 255.27 23.2027 256.465 22.776C258.129 19.448 260.07 17.784 262.289 17.784ZM259.089 31.8C260.326 31.8 261.713 29.5813 263.249 25.144V22.392L262.481 21.56H261.905C260.028 22.84 259.089 26.2533 259.089 31.8ZM285.536 21.432C289.163 21.7307 290.976 23.5013 290.976 26.744L291.104 27.576L290.976 37.56C290.976 38.712 291.637 40.2693 292.96 42.232V42.36C292.619 43.5973 292 44.216 291.104 44.216C288.459 43.1067 287.136 40.76 287.136 37.176V36.344L286.944 36.216L287.136 35.96V35.832L287.328 27C287.328 25.7627 286.795 25.144 285.728 25.144H284.96C282.827 25.9973 281.76 30.6693 281.76 39.16C281.76 42.104 281.013 43.576 279.52 43.576C278.368 43.576 277.771 42.8507 277.728 41.4V35C277.728 26.7227 278.453 22.584 279.904 22.584L280.544 22.392L281.888 22.584C283.04 21.816 284.256 21.432 285.536 21.432ZM306.934 18.296C308.811 18.296 309.75 19.0427 309.75 20.536L309.174 21.752L308.79 33.464C308.79 38.7547 309.857 42.04 311.99 43.32L312.118 44.28C311.99 45.5173 311.414 46.136 310.39 46.136H310.006C306.806 43.96 305.206 40.632 305.206 36.152H304.758C303.051 40.9307 300.982 43.32 298.55 43.32C296.289 42.68 295.158 40.9947 295.158 38.264C295.158 32.248 297.569 26.2533 302.39 20.28C304.011 18.9573 305.526 18.296 306.934 18.296ZM299.19 35.704L298.934 37.496V38.712H299.574C302.774 30.7333 304.374 25.8693 304.374 24.12H304.118C301.643 26.8933 300.001 30.7547 299.19 35.704ZM317.302 7.736C318.496 8.16267 319.094 8.824 319.094 9.72L319.734 34.104V41.976C319.734 43.4267 319.115 44.152 317.878 44.152H317.046C316.278 43.64 315.894 43.0427 315.894 42.36V34.936L315.318 9.592C315.318 8.52533 315.979 7.90666 317.302 7.736Z" fill="white"/>
</svg>
